# xmcd
#
# Track frame offsets:
#	150
#	19102
#	39015
#	58465
#	78892
#	96427
#	118605
#	136177
#	154692
#	180602
#	200007
#	223090
#	246190
#
# Disc length: 3694 seconds
#
# Revision: 1
# Processed by: cddbd v1.5.1PL0 Copyright (c) Steve Scherf et al.
# Submitted via: CDex 1.50Beta5
#
DISCID=b10e6c0d
DTITLE=沢田聖子 - Anniversary〜In My Heart Concert Disc 1
DYEAR=1994
DGENRE=
TTITLE0=シオン
TTITLE1=約束
TTITLE2=青春エピローグ
TTITLE3=my song
TTITLE4=See you again
TTITLE5=未来の子供達のために
TTITLE6=すべては君のためだけに
TTITLE7=落葉の部屋
TTITLE8=あなたからF・O
TTITLE9=まっすぐに…愛
TTITLE10=Natural
TTITLE11=LIFE
TTITLE12=想い出のオルゴール
EXTD=
EXTT0=
EXTT1=
EXTT2=
EXTT3=
EXTT4=
EXTT5=
EXTT6=
EXTT7=
EXTT8=
EXTT9=
EXTT10=
EXTT11=
EXTT12=
PLAYORDER=
